<?xml version="1.0" encoding="UTF-8" standalone="no"?>
<!-- Created with Inkscape (http://www.inkscape.org/) -->

<svg
   width="111.81452mm"
   height="42.723999mm"
   viewBox="0 0 111.81452 42.723999"
   version="1.1"
   id="svg96067"
   inkscape:version="1.1-rc (52f87abb86, 2021-05-02)"
   sodipodi:docname="landing-logo.svg"
   xmlns:inkscape="http://www.inkscape.org/namespaces/inkscape"
   xmlns:sodipodi="http://sodipodi.sourceforge.net/DTD/sodipodi-0.dtd"
   xmlns="http://www.w3.org/2000/svg"
   xmlns:svg="http://www.w3.org/2000/svg">
  <sodipodi:namedview
     id="namedview96069"
     pagecolor="#505050"
     bordercolor="#eeeeee"
     borderopacity="1"
     objecttolerance="10.0"
     gridtolerance="10.0"
     guidetolerance="10.0"
     inkscape:pageshadow="0"
     inkscape:pageopacity="0"
     inkscape:pagecheckerboard="0"
     inkscape:document-units="mm"
     showgrid="false"
     lock-margins="true"
     fit-margin-left="4"
     fit-margin-top="4"
     fit-margin-right="4"
     fit-margin-bottom="4"
     inkscape:zoom="1"
     inkscape:cx="411.5"
     inkscape:cy="355.5"
     inkscape:window-width="1920"
     inkscape:window-height="1019"
     inkscape:window-x="0"
     inkscape:window-y="0"
     inkscape:window-maximized="1"
     inkscape:current-layer="layer1" />
  <defs
     id="defs96064" />
  <g
     inkscape:label="Layer 1"
     inkscape:groupmode="layer"
     id="layer1"
     transform="translate(3.9999996,3.9999997)">
    <g
       id="g18020"
       transform="matrix(0.61786457,0,0,0.61787335,-57.490367,-22.814249)">
      <path
         id="path94431"
         style="fill:#151515;fill-opacity:1;stroke:none;stroke-width:0.516967;stroke-miterlimit:10;stroke-dasharray:4.13576, 2.06786;stop-color:#000000"
         sodipodi:type="inkscape:offset"
         inkscape:radius="0"
         inkscape:original="M 98.28125 36.923828 A 2.4142136 2.4142136 0 0 0 96.574219 37.630859 L 93.753906 40.451172 A 2.4142136 2.4142136 0 0 0 93.046875 42.158203 L 93.046875 61.626953 A 2.4142176 2.4142176 0 0 0 93.753906 63.333984 L 96.574219 66.152344 A 2.4142095 2.4142095 0 0 0 98.28125 66.859375 L 130.09375 66.859375 A 2.4142185 2.4142185 0 0 1 131.80078 67.568359 L 133.82617 69.591797 A 2.4142086 2.4142086 0 0 1 134.5332 71.300781 L 134.5332 88.683594 A 2.4142136 2.4142136 0 0 0 135.24023 90.390625 L 137.26562 92.416016 A 2.4142136 2.4142136 0 0 0 138.97266 93.123047 L 248.50586 93.123047 A 3.1379253 3.1379253 0 0 0 250.32227 92.544922 L 260.25195 85.5 A 1.9354864 1.9354864 0 0 0 261.06836 83.921875 L 261.06836 72.085938 A 1.9354864 1.9354864 0 0 0 260.25195 70.507812 L 250.32227 63.462891 A 3.1379253 3.1379253 0 0 0 248.50586 62.884766 L 236.58789 62.884766 A 2.4142071 2.4142071 0 0 1 234.88086 62.177734 L 233.65039 60.945312 A 2.41422 2.41422 0 0 1 232.94336 59.238281 L 232.94336 40.570312 A 2.4142136 2.4142136 0 0 0 232.23633 38.863281 L 231.00391 37.630859 A 2.4142136 2.4142136 0 0 0 229.29688 36.923828 L 98.28125 36.923828 z "
         d="m 98.28125,36.923828 a 2.4142136,2.4142136 0 0 0 -1.707031,0.707031 l -2.820313,2.820313 a 2.4142136,2.4142136 0 0 0 -0.707031,1.707031 v 19.46875 a 2.4142176,2.4142176 0 0 0 0.707031,1.707031 l 2.820313,2.81836 a 2.4142095,2.4142095 0 0 0 1.707031,0.707031 h 31.8125 a 2.4142185,2.4142185 0 0 1 1.70703,0.708984 l 2.02539,2.023438 a 2.4142086,2.4142086 0 0 1 0.70703,1.708984 v 17.382813 a 2.4142136,2.4142136 0 0 0 0.70703,1.707031 l 2.02539,2.025391 a 2.4142136,2.4142136 0 0 0 1.70704,0.707031 h 109.5332 a 3.1379253,3.1379253 0 0 0 1.81641,-0.578125 L 260.25195,85.5 a 1.9354864,1.9354864 0 0 0 0.81641,-1.578125 V 72.085938 a 1.9354864,1.9354864 0 0 0 -0.81641,-1.578126 l -9.92968,-7.044921 a 3.1379253,3.1379253 0 0 0 -1.81641,-0.578125 h -11.91797 a 2.4142071,2.4142071 0 0 1 -1.70703,-0.707032 l -1.23047,-1.232422 a 2.41422,2.41422 0 0 1 -0.70703,-1.707031 V 40.570312 a 2.4142136,2.4142136 0 0 0 -0.70703,-1.707031 l -1.23242,-1.232422 a 2.4142136,2.4142136 0 0 0 -1.70703,-0.707031 z" />
      <g
         id="g94443"
         transform="translate(-131.92337,-200.53418)">
        <g
           id="g94441">
          <path
             id="path94437"
             style="font-weight:bold;font-size:31.6844px;line-height:0.76;font-family:'Red Hat Display';-inkscape-font-specification:'Red Hat Display Bold';text-align:end;text-decoration-color:#000000;text-anchor:end;fill:#b3b3b3;stroke:none;stroke-width:1.51181;stop-color:#000000"
             d="m 875.69336,912.07812 -12.33398,12.33399 v 59.15625 l 12.33398,12.33594 h 39.75781 l 12.33399,-12.33594 v -59.15625 l -12.33399,-12.33399 z m 66.46289,0 v 83.82618 h 16.94531 V 970.875 h 31.67383 l 13.47261,-13.4707 v -32.99219 l -12.33394,-12.33399 z m 74.72465,0 v 83.82618 h 54.4882 v -16.94532 h -37.5429 v -16.88476 h 33.4121 v -16.94531 h -33.4121 v -16.10743 h 37.5429 v -16.94336 z m 68.8574,0 v 83.82618 h 16.9453 v -30.83594 h 24.1309 l 5.9863,5.98633 v 24.84961 h 16.9453 v -30.83594 l -7.3047,-7.96484 7.3047,-6.70508 v -25.98633 l -12.334,-12.33399 z m 90.1133,0 -12.334,12.33399 v 71.49219 h 16.8847 v -24.66992 h 29.5801 v 24.66992 h 16.8848 v -71.49219 l -12.336,-12.33399 z m 62.3906,0 v 16.94336 h 20.7773 v 66.88282 h 16.8848 v -66.88282 h 20.7773 v -16.94336 z m 69.8164,0 v 83.82618 h 54.4863 v -16.94532 h -37.541 v -16.88476 h 33.4102 v -16.94531 h -33.4102 v -16.10743 h 37.541 v -16.94336 z m -424.10157,16.94336 h 23.23242 l 3.65235,3.65235 v 42.63281 l -3.65235,3.65234 h -23.23242 l -3.65234,-3.65234 v -42.63281 z m 75.14453,0 h 24.60938 l 3.65234,3.65235 v 16.46679 l -4.84961,4.78907 h -23.41211 z m 143.58204,0 h 26.4648 l 3.6524,3.65235 v 11.73633 l -3.6524,3.71289 h -26.4648 z m 81.3711,0 h 22.2754 l 3.6523,3.65235 v 21.67578 h -29.5801 v -21.67578 z"
             transform="scale(0.26458333)" />
          <path
             id="path94439"
             style="font-weight:bold;font-size:12.7px;line-height:0.76;font-family:Tourney;-inkscape-font-specification:'Tourney Bold';text-align:end;text-anchor:end;fill:#ffcc00;stroke:none;stroke-width:0.4"
             d="m 270.80227,267.61555 v 22.17901 h 4.48344 v -8.95088 h 9.01443 v -4.48344 h -9.01443 v -4.26175 h 9.61596 v -4.48294 z m 17.10954,0 v 4.48294 h 4.34083 v 13.21263 h -4.34083 v 4.48344 h 13.13307 v -4.48344 h -4.3248 v -13.21263 h 4.3248 v -4.48294 z m 16.9354,0 v 22.17901 h 4.48347 v -8.15866 h 6.3841 l 1.58438,1.58387 v 6.57479 h 4.48347 v -8.15866 l -1.9327,-2.10738 1.9327,-1.77406 v -6.87554 l -3.2639,-3.26337 z m 23.93756,0 -3.26337,3.26337 v 6.79598 l 3.26337,3.26387 h 8.1747 l 0.96634,0.96634 v 2.43965 l -0.96634,0.96636 h -6.08388 l -0.96634,-0.96636 v -1.80608 h -4.48294 v 3.99201 l 3.26337,3.26387 h 10.4557 l 3.26337,-3.26387 v -6.81199 l -3.26337,-3.26337 h -8.1747 l -0.98184,-0.96636 v -2.42414 l 0.98184,-0.96634 h 5.68751 l 0.96637,0.96634 v 1.8061 h 4.48344 v -3.99201 l -3.26337,-3.26337 z m 16.63412,0 v 4.48294 h 5.49735 v 17.69607 h 4.46744 v -17.69607 h 5.49733 v -4.48294 z m 19.48926,0 v 6.70192 l 6.75825,4.42455 -6.75825,4.33152 v 6.72102 l 11.2391,-7.82277 v -6.45957 z m 13.38419,0 v 6.70192 l 6.75825,4.42455 -6.75825,4.33152 v 6.72102 l 11.23913,-7.82277 v -6.45957 z m -68.96166,4.48294 h 7.00214 l 0.96634,0.96634 v 3.10525 l -0.96634,0.98237 h -7.00214 z m 57.92977,0.2961 0.14005,0.0941 c -0.018,-0.005 -0.036,-0.0107 -0.0543,-0.015 h -5e-4 c -0.0345,0.01 -0.0626,0.024 -0.0853,0.0408 z m 13.38422,0 0.004,0.002 c -10e-4,6.6e-4 -0.002,10e-4 -0.004,0.002 z m -13.38422,0.51781 c 0.009,0.0143 0.0178,0.0282 0.0274,0.0419 l -0.0274,-0.0181 z m -39.28543,11.44786 h 0.002 v 0.003 c -5.3e-4,-0.001 -10e-4,-0.002 -0.002,-0.003 z m 39.30922,0.20981 c -0.008,0.0122 -0.0163,0.0244 -0.0238,0.0372 v -0.0217 z m -0.0238,0.52401 c 0.008,0.006 0.0164,0.0113 0.0253,0.0165 l -0.0253,0.0165 z" />
        </g>
      </g>
    </g>
  </g>
</svg>
