<svg id="Layer_1" data-name="Layer 1" xmlns="http://www.w3.org/2000/svg" viewBox="0 0 606.74 163.11"><defs><style>.cls-1{fill:#fff;}</style></defs><circle class="cls-1" cx="66.68" cy="12.12" r="12.12"/><path class="cls-1" d="M141.79,120.78a9.08,9.08,0,0,1-.29,13.27v75.07a18.19,18.19,0,1,1-36.37,0V134.05a9.08,9.08,0,0,1-.29-13.27,66.69,66.69,0,1,0,36.95,0Z" transform="translate(-56.63 -88.44)"/><path class="cls-1" d="M131.67,120.78H115c-2.08,0-3.77.82-3.77,1.83h0c0,1,1.69,1.83,3.77,1.83h16.71c2.08,0,3.77-.82,3.77-1.83h0C135.44,121.6,133.75,120.78,131.67,120.78Z" transform="translate(-56.63 -88.44)"/><path class="cls-1" d="M134.44,137.35a12.12,12.12,0,0,1-11.34,7.3,12,12,0,0,0-11.91,12.13v52.34a12.12,12.12,0,0,0,12.12,12.12h0a12.12,12.12,0,0,0,12.13-12.12V137.53A.52.52,0,0,0,134.44,137.35Zm-17.19,38.43a3,3,0,1,1,3-3A3,3,0,0,1,117.25,175.78Zm4.55,9.09a1.52,1.52,0,1,1,1.51-1.51A1.52,1.52,0,0,1,121.8,184.87Zm4.54-21.22a6.06,6.06,0,1,1,6.07-6.06A6.06,6.06,0,0,1,126.34,163.65Z" transform="translate(-56.63 -88.44)"/><path class="cls-1" d="M257.22,162.25q4.61,6.15,4.6,15.72,0,10.36-5.26,17.23-6.18,8.07-17.61,8.07-10.68,0-16.8-7.06-5.44-6.79-5.45-17.2a27.37,27.37,0,0,1,4.67-16.07q6-8.56,17.7-8.57Q251.33,154.37,257.22,162.25Zm-5.53,29.5a25.29,25.29,0,0,0,3.7-13.67q0-8.16-4.27-13.15t-11.67-5a15.2,15.2,0,0,0-11.72,4.94q-4.53,4.92-4.54,14.55a21.22,21.22,0,0,0,3.9,13q3.89,5.28,12.61,5.28Q248,197.69,251.69,191.75Z" transform="translate(-56.63 -88.44)"/><path class="cls-1" d="M267.74,168.33h5.54v4.47a13.85,13.85,0,0,1,3.73-3.56,12,12,0,0,1,6.76-1.89,12.74,12.74,0,0,1,9.76,4.4q4,4.4,4,12.55,0,11-5.79,15.76a13.12,13.12,0,0,1-8.54,3,11.66,11.66,0,0,1-6.42-1.67,14.75,14.75,0,0,1-3.38-3.24v17.23h-5.67Zm21.33,26.45q2.64-3.33,2.64-9.94a18.47,18.47,0,0,0-1.17-6.93,8.06,8.06,0,0,0-8.09-5.58q-5.91,0-8.09,5.89a23.29,23.29,0,0,0-1.17,8,16.86,16.86,0,0,0,1.17,6.64q2.2,5.24,8.09,5.23A8.1,8.1,0,0,0,289.07,194.78Z" transform="translate(-56.63 -88.44)"/><path class="cls-1" d="M325.9,169.1a12.79,12.79,0,0,1,5.11,4.37,14.94,14.94,0,0,1,2.25,5.95,38.68,38.68,0,0,1,.5,7.44H309.22a14.65,14.65,0,0,0,2.41,8.26q2.25,3.1,7,3.11a9,9,0,0,0,7-2.94,9.92,9.92,0,0,0,2.08-4h5.58a11.74,11.74,0,0,1-1.46,4.14,14.93,14.93,0,0,1-2.78,3.74,13.12,13.12,0,0,1-6.35,3.4,19.38,19.38,0,0,1-4.59.5,14.1,14.1,0,0,1-10.62-4.58q-4.35-4.59-4.35-12.84t4.38-13.2A14.45,14.45,0,0,1,319,167.42,15.25,15.25,0,0,1,325.9,169.1Zm2,13.25a14.83,14.83,0,0,0-1.6-5.89q-2.31-4.1-7.71-4.1a8.51,8.51,0,0,0-6.5,2.82,10.68,10.68,0,0,0-2.78,7.17Z" transform="translate(-56.63 -88.44)"/><path class="cls-1" d="M340.3,168.17h5.39V173a15.22,15.22,0,0,1,5.07-4.25,13.56,13.56,0,0,1,6-1.29q7.18,0,9.7,5a17.8,17.8,0,0,1,1.39,7.84v21.65H362V180.65a11.51,11.51,0,0,0-.91-5q-1.51-3.15-5.48-3.15a11.24,11.24,0,0,0-3.31.41,8.55,8.55,0,0,0-4.1,2.77,8.44,8.44,0,0,0-1.84,3.45,23.47,23.47,0,0,0-.43,5.09v17.68H340.3Z" transform="translate(-56.63 -88.44)"/><path class="cls-1" d="M374.81,155.63h6.34v46.29h-6.34Z" transform="translate(-56.63 -88.44)"/><path class="cls-1" d="M388,168.17h5.39V173a15.22,15.22,0,0,1,5.07-4.25,13.56,13.56,0,0,1,6-1.29q7.19,0,9.7,5a17.66,17.66,0,0,1,1.39,7.84v21.65h-5.77V180.65a11.51,11.51,0,0,0-.91-5c-1-2.1-2.83-3.15-5.48-3.15a11.24,11.24,0,0,0-3.31.41,8.59,8.59,0,0,0-4.1,2.77,8.44,8.44,0,0,0-1.84,3.45,23.58,23.58,0,0,0-.42,5.09v17.68H388Z" transform="translate(-56.63 -88.44)"/><path class="cls-1" d="M426.52,157.87q2-2.9,7.65-2.9l1.11,0,1.29.1v5.16l-1.29-.07-.75,0c-1.74,0-2.78.45-3.12,1.34s-.51,3.17-.51,6.82h5.67v4.47H430.9v29.12h-5.61V172.8h-4.7v-4.47h4.7V163A10,10,0,0,1,426.52,157.87Z" transform="translate(-56.63 -88.44)"/><path class="cls-1" d="M442.6,168.17H448V174a12.93,12.93,0,0,1,3.24-4.14,8.42,8.42,0,0,1,6-2.44l.53,0,1.3.12v6c-.34-.06-.65-.1-.93-.13s-.6,0-.93,0a8.09,8.09,0,0,0-6.59,2.76,9.64,9.64,0,0,0-2.3,6.35v19.41H442.6Z" transform="translate(-56.63 -88.44)"/><path class="cls-1" d="M482,181.49a3.06,3.06,0,0,0,2.61-1.63,5,5,0,0,0,.38-2.18,4.66,4.66,0,0,0-2.06-4.23,11.07,11.07,0,0,0-5.9-1.31q-4.43,0-6.29,2.41a8,8,0,0,0-1.35,4h-5.29q.15-6.25,4-8.71a16.59,16.59,0,0,1,9-2.45,18.37,18.37,0,0,1,9.66,2.27,7.71,7.71,0,0,1,3.68,7.06v19.44a2.51,2.51,0,0,0,.36,1.42,1.77,1.77,0,0,0,1.53.53,6.62,6.62,0,0,0,.85,0,10.15,10.15,0,0,0,1-.14v4.19a10.7,10.7,0,0,1-3.91.57,4.65,4.65,0,0,1-4.25-2.08,8,8,0,0,1-1-3.12,14.26,14.26,0,0,1-5,3.94,15.47,15.47,0,0,1-7.16,1.67,10.64,10.64,0,0,1-7.67-2.85,9.47,9.47,0,0,1-3-7.13,9.17,9.17,0,0,1,2.93-7.26,14,14,0,0,1,7.69-3.18Zm-11.95,15.32a6.65,6.65,0,0,0,4.26,1.42,13,13,0,0,0,5.79-1.38,7.81,7.81,0,0,0,4.73-7.52v-4.56a9.54,9.54,0,0,1-2.67,1.1,21.14,21.14,0,0,1-3.21.63l-3.43.44a13.52,13.52,0,0,0-4.63,1.29,5,5,0,0,0-2.63,4.72A4.66,4.66,0,0,0,470.07,196.81Z" transform="translate(-56.63 -88.44)"/><path class="cls-1" d="M519.14,155.48h9.71v38.09H552v8.35h-32.9Z" transform="translate(-56.63 -88.44)"/><path class="cls-1" d="M572.4,181a14.47,14.47,0,0,0,3.59-.79,2.71,2.71,0,0,0,1.94-2.55,3,3,0,0,0-1.49-2.92,9.46,9.46,0,0,0-4.36-.8c-2.15,0-3.67.52-4.57,1.58a6.49,6.49,0,0,0-1.27,3.15h-8.67a13.2,13.2,0,0,1,2.53-7.41q3.58-4.53,12.28-4.53A21.88,21.88,0,0,1,582.44,169q4.41,2.23,4.4,8.44v15.76c0,1.09,0,2.41.07,4a5,5,0,0,0,.53,2.39,3.21,3.21,0,0,0,1.32,1v1.33H579a9.41,9.41,0,0,1-.57-2,20.86,20.86,0,0,1-.25-2.08,18.75,18.75,0,0,1-4.31,3.44,13.07,13.07,0,0,1-6.59,1.67,11.35,11.35,0,0,1-7.75-2.67,9.45,9.45,0,0,1-3.06-7.54q0-6.33,4.92-9.17a21.93,21.93,0,0,1,7.93-2.2Zm5.49,4.19a10,10,0,0,1-1.74.86,14.67,14.67,0,0,1-2.41.62l-2,.38a13.1,13.1,0,0,0-4.13,1.23,4.09,4.09,0,0,0-2.12,3.81,4,4,0,0,0,1.29,3.32,5,5,0,0,0,3.16,1,9.34,9.34,0,0,0,5.42-1.71q2.48-1.69,2.57-6.2Z" transform="translate(-56.63 -88.44)"/><path class="cls-1" d="M624,171.7q3.86,4.89,3.85,12.6,0,8-3.8,13.27a13.8,13.8,0,0,1-17.48,3.56,13.68,13.68,0,0,1-3.35-3.53v4.32h-8.86V155.54h9v16.51a13.14,13.14,0,0,1,3.77-3.66,11.28,11.28,0,0,1,6.22-1.57A12.86,12.86,0,0,1,624,171.7Zm-7.51,20.92a12.67,12.67,0,0,0,1.94-7.37,16.62,16.62,0,0,0-1-6.05,6.65,6.65,0,0,0-6.67-4.54,6.74,6.74,0,0,0-6.77,4.44,16.73,16.73,0,0,0-.95,6.12,12.75,12.75,0,0,0,2,7.31,6.76,6.76,0,0,0,6,2.9A6.23,6.23,0,0,0,616.5,192.62Z" transform="translate(-56.63 -88.44)"/><path class="cls-1" d="M641.06,191a6,6,0,0,0,1.24,3.4c1.12,1.2,3.18,1.8,6.2,1.8a9.41,9.41,0,0,0,4.23-.79,2.63,2.63,0,0,0,.3-4.66q-1.26-.78-9.39-2.71c-3.9-1-6.65-2.17-8.25-3.62a7.89,7.89,0,0,1-2.39-6.18,10.71,10.71,0,0,1,3.74-8.17q3.74-3.42,10.53-3.42,6.43,0,10.5,2.57t4.66,8.86h-9a5.44,5.44,0,0,0-1-2.74q-1.49-1.81-5.06-1.82a7.25,7.25,0,0,0-4.18.91,2.61,2.61,0,0,0-1.25,2.14,2.35,2.35,0,0,0,1.32,2.24c.89.48,4,1.31,9.38,2.49q5.37,1.26,8,3.81a8.63,8.63,0,0,1,2.65,6.46,10.44,10.44,0,0,1-3.8,8.33q-3.81,3.22-11.76,3.23-8.12,0-12-3.42A11.1,11.1,0,0,1,632,191Z" transform="translate(-56.63 -88.44)"/></svg>
