<?xml version="1.0" encoding="UTF-8" standalone="no"?>
<!-- Created with Inkscape (http://www.inkscape.org/) -->

<svg
   width="74.410439mm"
   height="8.2997093mm"
   viewBox="0 0 74.410439 8.2997093"
   version="1.1"
   id="svg95686"
   inkscape:version="1.1-rc (52f87abb86, 2021-05-02)"
   sodipodi:docname="top-logo.svg"
   xmlns:inkscape="http://www.inkscape.org/namespaces/inkscape"
   xmlns:sodipodi="http://sodipodi.sourceforge.net/DTD/sodipodi-0.dtd"
   xmlns="http://www.w3.org/2000/svg"
   xmlns:svg="http://www.w3.org/2000/svg">
  <sodipodi:namedview
     id="namedview95688"
     pagecolor="#505050"
     bordercolor="#eeeeee"
     borderopacity="1"
     objecttolerance="10.0"
     gridtolerance="10.0"
     guidetolerance="10.0"
     inkscape:pageshadow="0"
     inkscape:pageopacity="0"
     inkscape:pagecheckerboard="0"
     inkscape:document-units="mm"
     showgrid="true"
     fit-margin-top="0"
     fit-margin-left="0"
     fit-margin-right="0"
     fit-margin-bottom="0"
     inkscape:zoom="4.6879852"
     inkscape:cx="141.31871"
     inkscape:cy="35.516324"
     inkscape:window-width="1920"
     inkscape:window-height="1019"
     inkscape:window-x="0"
     inkscape:window-y="0"
     inkscape:window-maximized="1"
     inkscape:current-layer="layer1">
    <inkscape:grid
       type="xygrid"
       id="grid95806" />
  </sodipodi:namedview>
  <defs
     id="defs95683" />
  <g
     inkscape:label="Layer 1"
     inkscape:groupmode="layer"
     id="layer1"
     transform="translate(91.24516,-33.634169)">
    <g
       id="g13932"
       transform="matrix(0.27313795,0,0,0.27313795,-97.783819,44.628146)">
      <path
         id="path13179"
         style="fill:#1a1a1a;stroke-width:0.515051;stroke-miterlimit:10;stroke-dasharray:4.12042, 2.06019;stop-color:#000000"
         d="m 29.17334,-40.25064 c -0.640252,-3.6e-5 -1.254125,0.252344 -1.706872,0.701701 l -2.820501,2.799632 c -0.452707,0.449398 -0.706932,1.058728 -0.706932,1.694243 v 19.324528 c 0,0.635515 0.254227,1.244847 0.706932,1.694243 l 2.820501,2.79758 c 0.452744,0.449358 1.06662,0.702217 1.706872,0.702217 l 143.90026,0.314943 h 109.53336 c 0.65077,2.63e-4 1.28556,-0.200367 1.81643,-0.573978 l 9.92963,-6.992924 c 0.51178,-0.359986 0.81614,-0.943905 0.81648,-1.56652 v -11.748392 c -2.6e-4,-0.622617 -0.3047,-1.206021 -0.81648,-1.566008 l -9.92963,-6.992923 c -0.53087,-0.373611 -1.16566,-0.574284 -1.81643,-0.573978 z" />
      <path
         id="path12756"
         style="font-weight:bold;font-size:31.6844px;line-height:0.76;font-family:'Red Hat Display';-inkscape-font-specification:'Red Hat Display Bold';text-align:end;text-decoration-color:#000000;text-anchor:end;fill:#b3b3b3;fill-opacity:1;stroke:none;stroke-width:0.4;stop-color:#000000"
         d="m 30.620935,-36.609034 -3.263365,3.263368 v 15.651758 l 3.263365,3.263884 h 10.519254 l 3.263368,-3.263884 v -15.651758 l -3.263368,-3.263368 z m 17.584973,0 v 22.17901 h 4.483447 v -6.622335 h 8.380367 l 3.564628,-3.564123 v -8.729184 l -3.263355,-3.263368 z m 19.770897,0 v 22.17901 h 14.416669 v -4.483449 h -9.933225 v -4.467426 h 8.840284 v -4.483447 h -8.840284 v -4.261757 h 9.933225 v -4.482931 z m 18.21852,0 v 22.17901 h 4.483444 V -22.5887 h 6.384634 l 1.583875,1.583883 v 6.574793 h 4.483442 V -22.5887 l -1.9327,-2.107364 1.9327,-1.774052 v -6.87555 l -3.263369,-3.263368 z m 23.842475,0 -3.26337,3.263368 v 18.915642 h 4.46741 v -6.52725 h 7.8264 v 6.52725 h 4.46744 v -18.915642 l -3.2639,-3.263368 z m 16.50751,0 v 4.482931 h 5.49733 v 17.696079 h 4.46744 v -17.696079 h 5.49733 v -4.482931 z m 18.47226,0 v 22.17901 h 14.41617 v -4.483449 h -9.93273 v -4.467426 h 8.83979 v -4.483447 h -8.83979 v -4.261757 h 9.93273 v -4.482931 z m -112.210205,4.482931 h 6.146911 l 0.966351,0.966351 v 11.279931 l -0.966351,0.966348 h -6.146911 l -0.966349,-0.966348 v -11.279931 z m 19.88199,0 h 6.511231 l 0.966349,0.966351 v 4.356838 l -1.283126,1.267108 h -6.194454 z m 37.989414,0 h 7.002145 l 0.966364,0.966351 v 3.105237 l -0.966364,0.982369 h -7.002145 z m 21.529441,0 h 5.89369 l 0.96634,0.966351 v 5.73505 h -7.8264 v -5.73505 z" />
      <path
         id="path12758"
         style="font-weight:bold;font-size:12.7px;line-height:0.76;font-family:Tourney;-inkscape-font-specification:'Tourney Bold';text-align:end;text-anchor:end;fill:#ffcc00;stroke:none;stroke-width:0.4"
         d="m 172.56681,-36.609043 v 22.17901 h 4.48344 v -8.95088 h 9.01443 v -4.48344 h -9.01443 v -4.26175 h 9.61596 v -4.48294 z m 17.10954,0 v 4.48294 h 4.34083 v 13.21263 h -4.34083 v 4.48344 h 13.13307 v -4.48344 h -4.3248 v -13.21263 h 4.3248 v -4.48294 z m 16.9354,0 v 22.17901 h 4.48347 v -8.15866 h 6.3841 l 1.58438,1.58387 v 6.57479 h 4.48347 v -8.15866 l -1.9327,-2.10738 1.9327,-1.77406 v -6.87554 l -3.2639,-3.26337 z m 23.93756,0 -3.26337,3.26337 v 6.79598 l 3.26337,3.26387 h 8.1747 l 0.96634,0.96634 v 2.43965 l -0.96634,0.96636 h -6.08388 l -0.96634,-0.96636 v -1.80608 h -4.48294 v 3.99201 l 3.26337,3.26387 h 10.4557 l 3.26337,-3.26387 v -6.81199 l -3.26337,-3.26337 h -8.1747 l -0.98184,-0.96636 v -2.42414 l 0.98184,-0.96634 h 5.68751 l 0.96637,0.96634 v 1.8061 h 4.48344 v -3.99201 l -3.26337,-3.26337 z m 16.63412,0 v 4.48294 h 5.49735 v 17.69607 h 4.46744 v -17.69607 h 5.49733 v -4.48294 z m 19.48926,0 v 6.70192 l 6.75825,4.42455 -6.75825,4.33152 v 6.72102 l 11.2391,-7.82277 v -6.45957 z m 13.38419,0 v 6.70192 l 6.75825,4.42455 -6.75825,4.33152 v 6.72102 l 11.23913,-7.82277 v -6.45957 z m -68.96166,4.48294 h 7.00214 l 0.96634,0.96634 v 3.10525 l -0.96634,0.98237 h -7.00214 z m 57.92977,0.2961 0.14005,0.0941 c -0.018,-0.005 -0.036,-0.0107 -0.0543,-0.015 h -5e-4 c -0.0345,0.01 -0.0626,0.024 -0.0853,0.0408 z m 13.38422,0 0.004,0.002 c -10e-4,6.6e-4 -0.002,10e-4 -0.004,0.002 z m -13.38422,0.51781 c 0.009,0.0143 0.0178,0.0282 0.0274,0.0419 l -0.0274,-0.0181 z m -39.28543,11.44786 h 0.002 v 0.003 c -5.3e-4,-0.001 -0.001,-0.002 -0.002,-0.003 z m 39.30922,0.20981 c -0.008,0.0122 -0.0163,0.0244 -0.0238,0.0372 v -0.0217 z m -0.0238,0.52401 c 0.008,0.006 0.0164,0.0113 0.0253,0.0165 l -0.0253,0.0165 z" />
    </g>
  </g>
</svg>
